solid 2D_emptyPatch
   facet normal 1.000000e+00 0.000000e+00 0.000000e+00
      outer loop
         vertex 2.000000e+00 1.361127e+02 6.351344e+01
         vertex 2.000000e+00 1.309313e+02 6.160534e+01
         vertex 2.000000e+00 1.493449e+02 4.493326e+00
      endloop
   endfacet
   facet normal 1.000000e+00 0.000000e+00 0.000000e+00
      outer loop
         vertex 2.000000e+00 1.493449e+02 4.493326e+00
         vertex 2.000000e+00 1.309313e+02 6.160534e+01
         vertex 2.000000e+00 1.408866e+02 2.258196e+00
      endloop
   endfacet
   facet normal 1.000000e+00 0.000000e+00 0.000000e+00
      outer loop
         vertex 2.000000e+00 1.408866e+02 2.258196e+00
         vertex 2.000000e+00 1.309313e+02 6.160534e+01
         vertex 2.000000e+00 1.257183e+02 6.043729e+01
      endloop
   endfacet
   facet normal 1.000000e+00 0.000000e+00 0.000000e+00
      outer loop
         vertex 2.000000e+00 1.408866e+02 2.258196e+00
         vertex 2.000000e+00 1.257183e+02 6.043729e+01
         vertex 2.000000e+00 1.323532e+02 7.867813e-01
      endloop
   endfacet
   facet normal 1.000000e+00 0.000000e+00 0.000000e+00
      outer loop
         vertex 2.000000e+00 1.323532e+02 7.867813e-01
         vertex 2.000000e+00 1.257183e+02 6.043729e+01
         vertex 2.000000e+00 1.237598e+02 7.288158e-02
      endloop
   endfacet
   facet normal 1.000000e+00 0.000000e+00 -0.000000e+00
      outer loop
         vertex 2.000000e+00 1.237598e+02 7.288158e-02
         vertex 2.000000e+00 1.257183e+02 6.043729e+01
         vertex 2.000000e+00 1.204588e+02 6.000280e+01
      endloop
   endfacet
   facet normal 1.000000e+00 0.000000e+00 0.000000e+00
      outer loop
         vertex 2.000000e+00 1.237598e+02 7.288158e-02
         vertex 2.000000e+00 1.204588e+02 6.000280e+01
         vertex 2.000000e+00 1.162402e+02 7.288158e-02
      endloop
   endfacet
   facet normal 1.000000e+00 0.000000e+00 0.000000e+00
      outer loop
         vertex 2.000000e+00 1.162402e+02 7.288158e-02
         vertex 2.000000e+00 1.204588e+02 6.000280e+01
         vertex 2.000000e+00 1.186228e+02 6.002522e+01
      endloop
   endfacet
   facet normal 1.000000e+00 0.000000e+00 -0.000000e+00
      outer loop
         vertex 2.000000e+00 1.162402e+02 7.288158e-02
         vertex 2.000000e+00 1.186228e+02 6.002522e+01
         vertex 2.000000e+00 1.077120e+02 7.784814e-01
      endloop
   endfacet
   facet normal 1.000000e+00 0.000000e+00 0.000000e+00
      outer loop
         vertex 2.000000e+00 1.077120e+02 7.784814e-01
         vertex 2.000000e+00 1.186228e+02 6.002522e+01
         vertex 2.000000e+00 1.132759e+02 6.060530e+01
      endloop
   endfacet
   facet normal 1.000000e+00 0.000000e+00 -0.000000e+00
      outer loop
         vertex 2.000000e+00 1.077120e+02 7.784814e-01
         vertex 2.000000e+00 1.132759e+02 6.060530e+01
         vertex 2.000000e+00 9.924152e+01 2.230361e+00
      endloop
   endfacet
   facet normal 1.000000e+00 0.000000e+00 -0.000000e+00
      outer loop
         vertex 2.000000e+00 9.924152e+01 2.230361e+00
         vertex 2.000000e+00 1.132759e+02 6.060530e+01
         vertex 2.000000e+00 9.087017e+01 4.426613e+00
      endloop
   endfacet
   facet normal 1.000000e+00 0.000000e+00 0.000000e+00
      outer loop
         vertex 2.000000e+00 9.087017e+01 4.426613e+00
         vertex 2.000000e+00 1.132759e+02 6.060530e+01
         vertex 2.000000e+00 1.079293e+02 6.195964e+01
      endloop
   endfacet
   facet normal 1.000000e+00 0.000000e+00 -0.000000e+00
      outer loop
         vertex 2.000000e+00 9.087017e+01 4.426613e+00
         vertex 2.000000e+00 1.079293e+02 6.195964e+01
         vertex 2.000000e+00 8.265845e+01 7.353768e+00
      endloop
   endfacet
   facet normal 1.000000e+00 0.000000e+00 0.000000e+00
      outer loop
         vertex 2.000000e+00 8.265845e+01 7.353768e+00
         vertex 2.000000e+00 1.079293e+02 6.195964e+01
         vertex 2.000000e+00 1.025678e+02 6.412362e+01
      endloop
   endfacet
   facet normal 1.000000e+00 0.000000e+00 -0.000000e+00
      outer loop
         vertex 2.000000e+00 8.265845e+01 7.353768e+00
         vertex 2.000000e+00 1.025678e+02 6.412362e+01
         vertex 2.000000e+00 7.461502e+01 1.101451e+01
      endloop
   endfacet
   facet normal 1.000000e+00 0.000000e+00 -0.000000e+00
      outer loop
         vertex 2.000000e+00 7.461502e+01 1.101451e+01
         vertex 2.000000e+00 1.025678e+02 6.412362e+01
         vertex 2.000000e+00 6.680076e+01 1.539296e+01
      endloop
   endfacet
   facet normal 1.000000e+00 0.000000e+00 0.000000e+00
      outer loop
         vertex 2.000000e+00 6.680076e+01 1.539296e+01
         vertex 2.000000e+00 1.025678e+02 6.412362e+01
         vertex 2.000000e+00 9.726012e+01 6.711619e+01
      endloop
   endfacet
   facet normal 1.000000e+00 0.000000e+00 -0.000000e+00
      outer loop
         vertex 2.000000e+00 6.680076e+01 1.539296e+01
         vertex 2.000000e+00 9.726012e+01 6.711619e+01
         vertex 2.000000e+00 5.925931e+01 2.047089e+01
      endloop
   endfacet
   facet normal 1.000000e+00 0.000000e+00 0.000000e+00
      outer loop
         vertex 2.000000e+00 5.925931e+01 2.047089e+01
         vertex 2.000000e+00 9.726012e+01 6.711619e+01
         vertex 2.000000e+00 9.203714e+01 7.096809e+01
      endloop
   endfacet
   facet normal 1.000000e+00 0.000000e+00 -0.000000e+00
      outer loop
         vertex 2.000000e+00 5.925931e+01 2.047089e+01
         vertex 2.000000e+00 9.203714e+01 7.096809e+01
         vertex 2.000000e+00 5.198990e+01 2.626251e+01
      endloop
   endfacet
   facet normal 1.000000e+00 0.000000e+00 -0.000000e+00
      outer loop
         vertex 2.000000e+00 1.493449e+02 4.493326e+00
         vertex 2.000000e+00 1.576672e+02 7.486299e+00
         vertex 2.000000e+00 1.361127e+02 6.351344e+01
      endloop
   endfacet
   facet normal 1.000000e+00 0.000000e+00 0.000000e+00
      outer loop
         vertex 2.000000e+00 1.361127e+02 6.351344e+01
         vertex 2.000000e+00 1.576672e+02 7.486299e+00
         vertex 2.000000e+00 1.658138e+02 1.123303e+01
      endloop
   endfacet
   facet normal 1.000000e+00 -0.000000e+00 0.000000e+00
      outer loop
         vertex 2.000000e+00 1.361127e+02 6.351344e+01
         vertex 2.000000e+00 1.658138e+02 1.123303e+01
         vertex 2.000000e+00 1.412486e+02 6.618573e+01
      endloop
   endfacet
   facet normal 1.000000e+00 0.000000e+00 0.000000e+00
      outer loop
         vertex 2.000000e+00 1.412486e+02 6.618573e+01
         vertex 2.000000e+00 1.658138e+02 1.123303e+01
         vertex 2.000000e+00 1.737623e+02 1.574196e+01
      endloop
   endfacet
   facet normal 1.000000e+00 -0.000000e+00 0.000000e+00
      outer loop
         vertex 2.000000e+00 1.412486e+02 6.618573e+01
         vertex 2.000000e+00 1.737623e+02 1.574196e+01
         vertex 2.000000e+00 1.463262e+02 6.965768e+01
      endloop
   endfacet
   facet normal 1.000000e+00 0.000000e+00 -0.000000e+00
      outer loop
         vertex 2.000000e+00 1.737623e+02 1.574196e+01
         vertex 2.000000e+00 1.814545e+02 2.099867e+01
         vertex 2.000000e+00 1.463262e+02 6.965768e+01
      endloop
   endfacet
   facet normal 1.000000e+00 0.000000e+00 0.000000e+00
      outer loop
         vertex 2.000000e+00 1.463262e+02 6.965768e+01
         vertex 2.000000e+00 1.814545e+02 2.099867e+01
         vertex 2.000000e+00 1.888482e+02 2.699275e+01
      endloop
   endfacet
   facet normal 1.000000e+00 -0.000000e+00 0.000000e+00
      outer loop
         vertex 2.000000e+00 1.463262e+02 6.965768e+01
         vertex 2.000000e+00 1.888482e+02 2.699275e+01
         vertex 2.000000e+00 1.512803e+02 7.393855e+01
      endloop
   endfacet
   facet normal 1.000000e+00 0.000000e+00 0.000000e+00
      outer loop
         vertex 2.000000e+00 1.512803e+02 7.393855e+01
         vertex 2.000000e+00 1.888482e+02 2.699275e+01
         vertex 2.000000e+00 1.958983e+02 3.370824e+01
      endloop
   endfacet
   facet normal 1.000000e+00 -0.000000e+00 0.000000e+00
      outer loop
         vertex 2.000000e+00 1.512803e+02 7.393855e+01
         vertex 2.000000e+00 1.958983e+02 3.370824e+01
         vertex 2.000000e+00 1.560385e+02 7.902506e+01
      endloop
   endfacet
   facet normal 1.000000e+00 0.000000e+00 0.000000e+00
      outer loop
         vertex 2.000000e+00 1.560385e+02 7.902506e+01
         vertex 2.000000e+00 1.958983e+02 3.370824e+01
         vertex 2.000000e+00 2.025501e+02 4.111376e+01
      endloop
   endfacet
   facet normal 1.000000e+00 -0.000000e+00 0.000000e+00
      outer loop
         vertex 2.000000e+00 1.560385e+02 7.902506e+01
         vertex 2.000000e+00 2.025501e+02 4.111376e+01
         vertex 2.000000e+00 1.601606e+02 8.437383e+01
      endloop
   endfacet
   facet normal 1.000000e+00 0.000000e+00 -0.000000e+00
      outer loop
         vertex 2.000000e+00 5.198990e+01 2.626251e+01
         vertex 2.000000e+00 9.203714e+01 7.096809e+01
         vertex 2.000000e+00 4.503341e+01 3.275855e+01
      endloop
   endfacet
   facet normal 1.000000e+00 0.000000e+00 0.000000e+00
      outer loop
         vertex 2.000000e+00 4.503341e+01 3.275855e+01
         vertex 2.000000e+00 9.203714e+01 7.096809e+01
         vertex 2.000000e+00 8.697510e+01 7.568291e+01
      endloop
   endfacet
   facet normal 1.000000e+00 0.000000e+00 -0.000000e+00
      outer loop
         vertex 2.000000e+00 4.503341e+01 3.275855e+01
         vertex 2.000000e+00 8.697510e+01 7.568291e+01
         vertex 2.000000e+00 3.843208e+01 3.994648e+01
      endloop
   endfacet
   facet normal 1.000000e+00 0.000000e+00 0.000000e+00
      outer loop
         vertex 2.000000e+00 3.843208e+01 3.994648e+01
         vertex 2.000000e+00 8.697510e+01 7.568291e+01
         vertex 2.000000e+00 8.214782e+01 8.125824e+01
      endloop
   endfacet
   facet normal 1.000000e+00 0.000000e+00 -0.000000e+00
      outer loop
         vertex 2.000000e+00 3.843208e+01 3.994648e+01
         vertex 2.000000e+00 8.214782e+01 8.125824e+01
         vertex 2.000000e+00 3.219183e+01 4.786102e+01
      endloop
   endfacet
   facet normal 1.000000e+00 0.000000e+00 0.000000e+00
      outer loop
         vertex 2.000000e+00 3.219183e+01 4.786102e+01
         vertex 2.000000e+00 8.214782e+01 8.125824e+01
         vertex 2.000000e+00 8.107491e+01 8.266602e+01
      endloop
   endfacet
   facet normal 1.000000e+00 0.000000e+00 -0.000000e+00
      outer loop
         vertex 2.000000e+00 3.219183e+01 4.786102e+01
         vertex 2.000000e+00 8.107491e+01 8.266602e+01
         vertex 2.000000e+00 2.643338e+01 5.637763e+01
      endloop
   endfacet
   facet normal 1.000000e+00 0.000000e+00 0.000000e+00
      outer loop
         vertex 2.000000e+00 2.643338e+01 5.637763e+01
         vertex 2.000000e+00 8.107491e+01 8.266602e+01
         vertex 2.000000e+00 7.664445e+01 8.927196e+01
      endloop
   endfacet
   facet normal 1.000000e+00 0.000000e+00 -0.000000e+00
      outer loop
         vertex 2.000000e+00 2.643338e+01 5.637763e+01
         vertex 2.000000e+00 7.664445e+01 8.927196e+01
         vertex 2.000000e+00 2.113883e+01 6.555030e+01
      endloop
   endfacet
   facet normal 1.000000e+00 0.000000e+00 0.000000e+00
      outer loop
         vertex 2.000000e+00 2.113883e+01 6.555030e+01
         vertex 2.000000e+00 7.664445e+01 8.927196e+01
         vertex 2.000000e+00 7.258949e+01 9.672470e+01
      endloop
   endfacet
   facet normal 1.000000e+00 0.000000e+00 -0.000000e+00
      outer loop
         vertex 2.000000e+00 2.113883e+01 6.555030e+01
         vertex 2.000000e+00 7.258949e+01 9.672470e+01
         vertex 2.000000e+00 1.635614e+01 7.534380e+01
      endloop
   endfacet
   facet normal 1.000000e+00 0.000000e+00 0.000000e+00
      outer loop
         vertex 2.000000e+00 1.635614e+01 7.534380e+01
         vertex 2.000000e+00 7.258949e+01 9.672470e+01
         vertex 2.000000e+00 6.898901e+01 1.049833e+02
      endloop
   endfacet
   facet normal 1.000000e+00 0.000000e+00 -0.000000e+00
      outer loop
         vertex 2.000000e+00 1.635614e+01 7.534380e+01
         vertex 2.000000e+00 6.898901e+01 1.049833e+02
         vertex 2.000000e+00 1.211800e+01 8.574171e+01
      endloop
   endfacet
   facet normal 1.000000e+00 0.000000e+00 -0.000000e+00
      outer loop
         vertex 2.000000e+00 2.025501e+02 4.111376e+01
         vertex 2.000000e+00 2.066288e+02 4.627012e+01
         vertex 2.000000e+00 1.601606e+02 8.437383e+01
      endloop
   endfacet
   facet normal 1.000000e+00 0.000000e+00 0.000000e+00
      outer loop
         vertex 2.000000e+00 1.601606e+02 8.437383e+01
         vertex 2.000000e+00 2.066288e+02 4.627012e+01
         vertex 2.000000e+00 2.125748e+02 5.481381e+01
      endloop
   endfacet
   facet normal 1.000000e+00 -0.000000e+00 0.000000e+00
      outer loop
         vertex 2.000000e+00 1.601606e+02 8.437383e+01
         vertex 2.000000e+00 2.125748e+02 5.481381e+01
         vertex 2.000000e+00 1.643973e+02 9.103934e+01
      endloop
   endfacet
   facet normal 1.000000e+00 0.000000e+00 0.000000e+00
      outer loop
         vertex 2.000000e+00 1.643973e+02 9.103934e+01
         vertex 2.000000e+00 2.125748e+02 5.481381e+01
         vertex 2.000000e+00 2.180281e+02 6.400487e+01
      endloop
   endfacet
   facet normal 1.000000e+00 -0.000000e+00 0.000000e+00
      outer loop
         vertex 2.000000e+00 1.643973e+02 9.103934e+01
         vertex 2.000000e+00 2.180281e+02 6.400487e+01
         vertex 2.000000e+00 1.682452e+02 9.847604e+01
      endloop
   endfacet
   facet normal 1.000000e+00 0.000000e+00 0.000000e+00
      outer loop
         vertex 2.000000e+00 1.682452e+02 9.847604e+01
         vertex 2.000000e+00 2.180281e+02 6.400487e+01
         vertex 2.000000e+00 2.229556e+02 7.382540e+01
      endloop
   endfacet
   facet normal 1.000000e+00 -0.000000e+00 0.000000e+00
      outer loop
         vertex 2.000000e+00 1.682452e+02 9.847604e+01
         vertex 2.000000e+00 2.229556e+02 7.382540e+01
         vertex 2.000000e+00 1.716384e+02 1.066421e+02
      endloop
   endfacet
   facet normal 1.000000e+00 0.000000e+00 0.000000e+00
      outer loop
         vertex 2.000000e+00 1.716384e+02 1.066421e+02
         vertex 2.000000e+00 2.229556e+02 7.382540e+01
         vertex 2.000000e+00 2.273240e+02 8.425394e+01
      endloop
   endfacet
   facet normal 1.000000e+00 -0.000000e+00 0.000000e+00
      outer loop
         vertex 2.000000e+00 1.716384e+02 1.066421e+02
         vertex 2.000000e+00 2.273240e+02 8.425394e+01
         vertex 2.000000e+00 1.745306e+02 1.155427e+02
      endloop
   endfacet
   facet normal 1.000000e+00 0.000000e+00 -0.000000e+00
      outer loop
         vertex 2.000000e+00 1.211800e+01 8.574171e+01
         vertex 2.000000e+00 6.898901e+01 1.049833e+02
         vertex 2.000000e+00 8.457497e+00 9.672411e+01
      endloop
   endfacet
   facet normal 1.000000e+00 0.000000e+00 0.000000e+00
      outer loop
         vertex 2.000000e+00 8.457497e+00 9.672411e+01
         vertex 2.000000e+00 6.898901e+01 1.049833e+02
         vertex 2.000000e+00 6.592113e+01 1.139857e+02
      endloop
   endfacet
   facet normal 1.000000e+00 0.000000e+00 -0.000000e+00
      outer loop
         vertex 2.000000e+00 8.457497e+00 9.672411e+01
         vertex 2.000000e+00 6.592113e+01 1.139857e+02
         vertex 2.000000e+00 5.408809e+00 1.082665e+02
      endloop
   endfacet
   facet normal 1.000000e+00 0.000000e+00 0.000000e+00
      outer loop
         vertex 2.000000e+00 5.408809e+00 1.082665e+02
         vertex 2.000000e+00 6.592113e+01 1.139857e+02
         vertex 2.000000e+00 6.344573e+01 1.236747e+02
      endloop
   endfacet
   facet normal 1.000000e+00 0.000000e+00 -0.000000e+00
      outer loop
         vertex 2.000000e+00 5.408809e+00 1.082665e+02
         vertex 2.000000e+00 6.344573e+01 1.236747e+02
         vertex 2.000000e+00 3.011152e+00 1.203185e+02
      endloop
   endfacet
   facet normal 1.000000e+00 0.000000e+00 0.000000e+00
      outer loop
         vertex 2.000000e+00 3.011152e+00 1.203185e+02
         vertex 2.000000e+00 6.344573e+01 1.236747e+02
         vertex 2.000000e+00 6.160064e+01 1.340465e+02
      endloop
   endfacet
   facet normal 1.000000e+00 0.000000e+00 -0.000000e+00
      outer loop
         vertex 2.000000e+00 3.011152e+00 1.203185e+02
         vertex 2.000000e+00 6.160064e+01 1.340465e+02
         vertex 2.000000e+00 1.294166e+00 1.328471e+02
      endloop
   endfacet
   facet normal 1.000000e+00 0.000000e+00 0.000000e+00
      outer loop
         vertex 2.000000e+00 1.294166e+00 1.328471e+02
         vertex 2.000000e+00 6.160064e+01 1.340465e+02
         vertex 2.000000e+00 6.043795e+01 1.450381e+02
      endloop
   endfacet
   facet normal 1.000000e+00 0.000000e+00 -0.000000e+00
      outer loop
         vertex 2.000000e+00 1.294166e+00 1.328471e+02
         vertex 2.000000e+00 6.043795e+01 1.450381e+02
         vertex 2.000000e+00 2.842396e-01 1.458238e+02
      endloop
   endfacet
   facet normal 1.000000e+00 -0.000000e+00 -0.000000e+00
      outer loop
         vertex 2.000000e+00 2.842396e-01 1.458238e+02
         vertex 2.000000e+00 6.043795e+01 1.450381e+02
         vertex 2.000000e+00 0.000000e+00 1.575000e+02
      endloop
   endfacet
   facet normal 1.000000e+00 0.000000e+00 0.000000e+00
      outer loop
         vertex 2.000000e+00 0.000000e+00 1.575000e+02
         vertex 2.000000e+00 6.043795e+01 1.450381e+02
         vertex 2.000000e+00 6.000806e+01 1.557859e+02
      endloop
   endfacet
   facet normal 1.000000e+00 -0.000000e+00 0.000000e+00
      outer loop
         vertex 2.000000e+00 0.000000e+00 1.575000e+02
         vertex 2.000000e+00 6.000806e+01 1.557859e+02
         vertex 2.000000e+00 5.999999e+01 1.575000e+02
      endloop
   endfacet
   facet normal 1.000000e+00 0.000000e+00 -0.000000e+00
      outer loop
         vertex 2.000000e+00 2.273240e+02 8.425394e+01
         vertex 2.000000e+00 2.310943e+02 9.524404e+01
         vertex 2.000000e+00 1.745306e+02 1.155427e+02
      endloop
   endfacet
   facet normal 1.000000e+00 0.000000e+00 0.000000e+00
      outer loop
         vertex 2.000000e+00 1.745306e+02 1.155427e+02
         vertex 2.000000e+00 2.310943e+02 9.524404e+01
         vertex 2.000000e+00 2.342361e+02 1.067578e+02
      endloop
   endfacet
   facet normal 1.000000e+00 -0.000000e+00 0.000000e+00
      outer loop
         vertex 2.000000e+00 1.745306e+02 1.155427e+02
         vertex 2.000000e+00 2.342361e+02 1.067578e+02
         vertex 2.000000e+00 1.768595e+02 1.251249e+02
      endloop
   endfacet
   facet normal 1.000000e+00 0.000000e+00 0.000000e+00
      outer loop
         vertex 2.000000e+00 1.768595e+02 1.251249e+02
         vertex 2.000000e+00 2.342361e+02 1.067578e+02
         vertex 2.000000e+00 2.367225e+02 1.187664e+02
      endloop
   endfacet
   facet normal 1.000000e+00 -0.000000e+00 0.000000e+00
      outer loop
         vertex 2.000000e+00 1.768595e+02 1.251249e+02
         vertex 2.000000e+00 2.367225e+02 1.187664e+02
         vertex 2.000000e+00 1.785745e+02 1.353239e+02
      endloop
   endfacet
   facet normal 1.000000e+00 0.000000e+00 0.000000e+00
      outer loop
         vertex 2.000000e+00 1.785745e+02 1.353239e+02
         vertex 2.000000e+00 2.367225e+02 1.187664e+02
         vertex 2.000000e+00 2.385277e+02 1.312413e+02
      endloop
   endfacet
   facet normal 1.000000e+00 -0.000000e+00 0.000000e+00
      outer loop
         vertex 2.000000e+00 1.785745e+02 1.353239e+02
         vertex 2.000000e+00 2.385277e+02 1.312413e+02
         vertex 2.000000e+00 1.796331e+02 1.460783e+02
      endloop
   endfacet
   facet normal 1.000000e+00 0.000000e+00 0.000000e+00
      outer loop
         vertex 2.000000e+00 1.796331e+02 1.460783e+02
         vertex 2.000000e+00 2.385277e+02 1.312413e+02
         vertex 2.000000e+00 2.396276e+02 1.441534e+02
      endloop
   endfacet
   facet normal 1.000000e+00 -0.000000e+00 0.000000e+00
      outer loop
         vertex 2.000000e+00 1.796331e+02 1.460783e+02
         vertex 2.000000e+00 2.396276e+02 1.441534e+02
         vertex 2.000000e+00 1.800000e+02 1.575000e+02
      endloop
   endfacet
   facet normal 1.000000e+00 -0.000000e+00 0.000000e+00
      outer loop
         vertex 2.000000e+00 1.800000e+02 1.575000e+02
         vertex 2.000000e+00 2.396276e+02 1.441534e+02
         vertex 2.000000e+00 2.400000e+02 1.575000e+02
      endloop
   endfacet
   facet normal -1.000000e+00 -0.000000e+00 0.000000e+00
      outer loop
         vertex 0.000000e+00 1.079293e+02 6.195964e+01
         vertex 0.000000e+00 8.265845e+01 7.353768e+00
         vertex 0.000000e+00 1.025678e+02 6.412362e+01
      endloop
   endfacet
   facet normal -1.000000e+00 0.000000e+00 0.000000e+00
      outer loop
         vertex 0.000000e+00 1.025678e+02 6.412362e+01
         vertex 0.000000e+00 8.265845e+01 7.353768e+00
         vertex 0.000000e+00 7.461502e+01 1.101451e+01
      endloop
   endfacet
   facet normal -1.000000e+00 -0.000000e+00 0.000000e+00
      outer loop
         vertex 0.000000e+00 1.025678e+02 6.412362e+01
         vertex 0.000000e+00 7.461502e+01 1.101451e+01
         vertex 0.000000e+00 9.726012e+01 6.711619e+01
      endloop
   endfacet
   facet normal -1.000000e+00 -0.000000e+00 0.000000e+00
      outer loop
         vertex 0.000000e+00 1.186228e+02 6.002522e+01
         vertex 0.000000e+00 1.077120e+02 7.784814e-01
         vertex 0.000000e+00 1.132759e+02 6.060530e+01
      endloop
   endfacet
   facet normal -1.000000e+00 0.000000e+00 0.000000e+00
      outer loop
         vertex 0.000000e+00 1.132759e+02 6.060530e+01
         vertex 0.000000e+00 1.077120e+02 7.784814e-01
         vertex 0.000000e+00 9.924152e+01 2.230361e+00
      endloop
   endfacet
   facet normal -1.000000e+00 -0.000000e+00 0.000000e+00
      outer loop
         vertex 0.000000e+00 1.132759e+02 6.060530e+01
         vertex 0.000000e+00 9.924152e+01 2.230361e+00
         vertex 0.000000e+00 1.079293e+02 6.195964e+01
      endloop
   endfacet
   facet normal -1.000000e+00 0.000000e+00 0.000000e+00
      outer loop
         vertex 0.000000e+00 1.079293e+02 6.195964e+01
         vertex 0.000000e+00 9.924152e+01 2.230361e+00
         vertex 0.000000e+00 9.087017e+01 4.426613e+00
      endloop
   endfacet
   facet normal -1.000000e+00 0.000000e+00 0.000000e+00
      outer loop
         vertex 0.000000e+00 1.079293e+02 6.195964e+01
         vertex 0.000000e+00 9.087017e+01 4.426613e+00
         vertex 0.000000e+00 8.265845e+01 7.353768e+00
      endloop
   endfacet
   facet normal -1.000000e+00 0.000000e+00 -0.000000e+00
      outer loop
         vertex 0.000000e+00 1.309313e+02 6.160534e+01
         vertex 0.000000e+00 1.408866e+02 2.258196e+00
         vertex 0.000000e+00 1.257183e+02 6.043729e+01
      endloop
   endfacet
   facet normal -1.000000e+00 0.000000e+00 0.000000e+00
      outer loop
         vertex 0.000000e+00 1.257183e+02 6.043729e+01
         vertex 0.000000e+00 1.408866e+02 2.258196e+00
         vertex 0.000000e+00 1.323532e+02 7.867813e-01
      endloop
   endfacet
   facet normal -1.000000e+00 0.000000e+00 -0.000000e+00
      outer loop
         vertex 0.000000e+00 1.257183e+02 6.043729e+01
         vertex 0.000000e+00 1.323532e+02 7.867813e-01
         vertex 0.000000e+00 1.204588e+02 6.000280e+01
      endloop
   endfacet
   facet normal -1.000000e+00 0.000000e+00 0.000000e+00
      outer loop
         vertex 0.000000e+00 1.204588e+02 6.000280e+01
         vertex 0.000000e+00 1.323532e+02 7.867813e-01
         vertex 0.000000e+00 1.237598e+02 7.288158e-02
      endloop
   endfacet
   facet normal -1.000000e+00 -0.000000e+00 -0.000000e+00
      outer loop
         vertex 0.000000e+00 1.204588e+02 6.000280e+01
         vertex 0.000000e+00 1.237598e+02 7.288158e-02
         vertex 0.000000e+00 1.186228e+02 6.002522e+01
      endloop
   endfacet
   facet normal -1.000000e+00 0.000000e+00 -0.000000e+00
      outer loop
         vertex 0.000000e+00 1.186228e+02 6.002522e+01
         vertex 0.000000e+00 1.237598e+02 7.288158e-02
         vertex 0.000000e+00 1.162402e+02 7.288158e-02
      endloop
   endfacet
   facet normal -1.000000e+00 0.000000e+00 0.000000e+00
      outer loop
         vertex 0.000000e+00 1.186228e+02 6.002522e+01
         vertex 0.000000e+00 1.162402e+02 7.288158e-02
         vertex 0.000000e+00 1.077120e+02 7.784814e-01
      endloop
   endfacet
   facet normal -1.000000e+00 0.000000e+00 -0.000000e+00
      outer loop
         vertex 0.000000e+00 1.412486e+02 6.618573e+01
         vertex 0.000000e+00 1.658138e+02 1.123303e+01
         vertex 0.000000e+00 1.361127e+02 6.351344e+01
      endloop
   endfacet
   facet normal -1.000000e+00 0.000000e+00 0.000000e+00
      outer loop
         vertex 0.000000e+00 1.361127e+02 6.351344e+01
         vertex 0.000000e+00 1.658138e+02 1.123303e+01
         vertex 0.000000e+00 1.576672e+02 7.486299e+00
      endloop
   endfacet
   facet normal -1.000000e+00 0.000000e+00 -0.000000e+00
      outer loop
         vertex 0.000000e+00 1.361127e+02 6.351344e+01
         vertex 0.000000e+00 1.576672e+02 7.486299e+00
         vertex 0.000000e+00 1.309313e+02 6.160534e+01
      endloop
   endfacet
   facet normal -1.000000e+00 0.000000e+00 0.000000e+00
      outer loop
         vertex 0.000000e+00 1.309313e+02 6.160534e+01
         vertex 0.000000e+00 1.576672e+02 7.486299e+00
         vertex 0.000000e+00 1.493449e+02 4.493326e+00
      endloop
   endfacet
   facet normal -1.000000e+00 0.000000e+00 0.000000e+00
      outer loop
         vertex 0.000000e+00 1.309313e+02 6.160534e+01
         vertex 0.000000e+00 1.493449e+02 4.493326e+00
         vertex 0.000000e+00 1.408866e+02 2.258196e+00
      endloop
   endfacet
   facet normal -1.000000e+00 0.000000e+00 -0.000000e+00
      outer loop
         vertex 0.000000e+00 1.512803e+02 7.393855e+01
         vertex 0.000000e+00 1.888482e+02 2.699275e+01
         vertex 0.000000e+00 1.463262e+02 6.965768e+01
      endloop
   endfacet
   facet normal -1.000000e+00 0.000000e+00 0.000000e+00
      outer loop
         vertex 0.000000e+00 1.463262e+02 6.965768e+01
         vertex 0.000000e+00 1.888482e+02 2.699275e+01
         vertex 0.000000e+00 1.814545e+02 2.099867e+01
      endloop
   endfacet
   facet normal -1.000000e+00 0.000000e+00 -0.000000e+00
      outer loop
         vertex 0.000000e+00 1.463262e+02 6.965768e+01
         vertex 0.000000e+00 1.814545e+02 2.099867e+01
         vertex 0.000000e+00 1.412486e+02 6.618573e+01
      endloop
   endfacet
   facet normal -1.000000e+00 0.000000e+00 0.000000e+00
      outer loop
         vertex 0.000000e+00 1.412486e+02 6.618573e+01
         vertex 0.000000e+00 1.814545e+02 2.099867e+01
         vertex 0.000000e+00 1.737623e+02 1.574196e+01
      endloop
   endfacet
   facet normal -1.000000e+00 0.000000e+00 0.000000e+00
      outer loop
         vertex 0.000000e+00 1.412486e+02 6.618573e+01
         vertex 0.000000e+00 1.737623e+02 1.574196e+01
         vertex 0.000000e+00 1.658138e+02 1.123303e+01
      endloop
   endfacet
   facet normal -1.000000e+00 0.000000e+00 0.000000e+00
      outer loop
         vertex 0.000000e+00 7.461502e+01 1.101451e+01
         vertex 0.000000e+00 6.680076e+01 1.539296e+01
         vertex 0.000000e+00 9.726012e+01 6.711619e+01
      endloop
   endfacet
   facet normal -1.000000e+00 0.000000e+00 0.000000e+00
      outer loop
         vertex 0.000000e+00 9.726012e+01 6.711619e+01
         vertex 0.000000e+00 6.680076e+01 1.539296e+01
         vertex 0.000000e+00 5.925931e+01 2.047089e+01
      endloop
   endfacet
   facet normal -1.000000e+00 -0.000000e+00 0.000000e+00
      outer loop
         vertex 0.000000e+00 9.726012e+01 6.711619e+01
         vertex 0.000000e+00 5.925931e+01 2.047089e+01
         vertex 0.000000e+00 9.203714e+01 7.096809e+01
      endloop
   endfacet
   facet normal -1.000000e+00 0.000000e+00 0.000000e+00
      outer loop
         vertex 0.000000e+00 9.203714e+01 7.096809e+01
         vertex 0.000000e+00 5.925931e+01 2.047089e+01
         vertex 0.000000e+00 5.198990e+01 2.626251e+01
      endloop
   endfacet
   facet normal -1.000000e+00 -0.000000e+00 0.000000e+00
      outer loop
         vertex 0.000000e+00 9.203714e+01 7.096809e+01
         vertex 0.000000e+00 5.198990e+01 2.626251e+01
         vertex 0.000000e+00 8.697510e+01 7.568291e+01
      endloop
   endfacet
   facet normal -1.000000e+00 0.000000e+00 0.000000e+00
      outer loop
         vertex 0.000000e+00 8.697510e+01 7.568291e+01
         vertex 0.000000e+00 5.198990e+01 2.626251e+01
         vertex 0.000000e+00 4.503341e+01 3.275855e+01
      endloop
   endfacet
   facet normal -1.000000e+00 -0.000000e+00 0.000000e+00
      outer loop
         vertex 0.000000e+00 8.697510e+01 7.568291e+01
         vertex 0.000000e+00 4.503341e+01 3.275855e+01
         vertex 0.000000e+00 8.214782e+01 8.125824e+01
      endloop
   endfacet
   facet normal -1.000000e+00 0.000000e+00 0.000000e+00
      outer loop
         vertex 0.000000e+00 8.214782e+01 8.125824e+01
         vertex 0.000000e+00 4.503341e+01 3.275855e+01
         vertex 0.000000e+00 3.843208e+01 3.994648e+01
      endloop
   endfacet
   facet normal -1.000000e+00 -0.000000e+00 0.000000e+00
      outer loop
         vertex 0.000000e+00 8.214782e+01 8.125824e+01
         vertex 0.000000e+00 3.843208e+01 3.994648e+01
         vertex 0.000000e+00 8.107491e+01 8.266602e+01
      endloop
   endfacet
   facet normal -1.000000e+00 0.000000e+00 0.000000e+00
      outer loop
         vertex 0.000000e+00 8.107491e+01 8.266602e+01
         vertex 0.000000e+00 3.843208e+01 3.994648e+01
         vertex 0.000000e+00 3.219183e+01 4.786102e+01
      endloop
   endfacet
   facet normal -1.000000e+00 -0.000000e+00 0.000000e+00
      outer loop
         vertex 0.000000e+00 8.107491e+01 8.266602e+01
         vertex 0.000000e+00 3.219183e+01 4.786102e+01
         vertex 0.000000e+00 7.664445e+01 8.927196e+01
      endloop
   endfacet
   facet normal -1.000000e+00 0.000000e+00 0.000000e+00
      outer loop
         vertex 0.000000e+00 7.664445e+01 8.927196e+01
         vertex 0.000000e+00 3.219183e+01 4.786102e+01
         vertex 0.000000e+00 2.643338e+01 5.637763e+01
      endloop
   endfacet
   facet normal -1.000000e+00 -0.000000e+00 0.000000e+00
      outer loop
         vertex 0.000000e+00 7.664445e+01 8.927196e+01
         vertex 0.000000e+00 2.643338e+01 5.637763e+01
         vertex 0.000000e+00 7.258949e+01 9.672470e+01
      endloop
   endfacet
   facet normal -1.000000e+00 0.000000e+00 -0.000000e+00
      outer loop
         vertex 0.000000e+00 1.643973e+02 9.103934e+01
         vertex 0.000000e+00 2.125748e+02 5.481381e+01
         vertex 0.000000e+00 1.601606e+02 8.437383e+01
      endloop
   endfacet
   facet normal -1.000000e+00 0.000000e+00 0.000000e+00
      outer loop
         vertex 0.000000e+00 1.601606e+02 8.437383e+01
         vertex 0.000000e+00 2.125748e+02 5.481381e+01
         vertex 0.000000e+00 2.066288e+02 4.627012e+01
      endloop
   endfacet
   facet normal -1.000000e+00 0.000000e+00 -0.000000e+00
      outer loop
         vertex 0.000000e+00 1.601606e+02 8.437383e+01
         vertex 0.000000e+00 2.066288e+02 4.627012e+01
         vertex 0.000000e+00 1.560385e+02 7.902506e+01
      endloop
   endfacet
   facet normal -1.000000e+00 0.000000e+00 0.000000e+00
      outer loop
         vertex 0.000000e+00 1.560385e+02 7.902506e+01
         vertex 0.000000e+00 2.066288e+02 4.627012e+01
         vertex 0.000000e+00 2.025501e+02 4.111376e+01
      endloop
   endfacet
   facet normal -1.000000e+00 0.000000e+00 -0.000000e+00
      outer loop
         vertex 0.000000e+00 1.560385e+02 7.902506e+01
         vertex 0.000000e+00 2.025501e+02 4.111376e+01
         vertex 0.000000e+00 1.512803e+02 7.393855e+01
      endloop
   endfacet
   facet normal -1.000000e+00 0.000000e+00 0.000000e+00
      outer loop
         vertex 0.000000e+00 1.512803e+02 7.393855e+01
         vertex 0.000000e+00 2.025501e+02 4.111376e+01
         vertex 0.000000e+00 1.958983e+02 3.370824e+01
      endloop
   endfacet
   facet normal -1.000000e+00 0.000000e+00 0.000000e+00
      outer loop
         vertex 0.000000e+00 1.512803e+02 7.393855e+01
         vertex 0.000000e+00 1.958983e+02 3.370824e+01
         vertex 0.000000e+00 1.888482e+02 2.699275e+01
      endloop
   endfacet
   facet normal -1.000000e+00 0.000000e+00 0.000000e+00
      outer loop
         vertex 0.000000e+00 2.643338e+01 5.637763e+01
         vertex 0.000000e+00 2.113883e+01 6.555030e+01
         vertex 0.000000e+00 7.258949e+01 9.672470e+01
      endloop
   endfacet
   facet normal -1.000000e+00 0.000000e+00 0.000000e+00
      outer loop
         vertex 0.000000e+00 7.258949e+01 9.672470e+01
         vertex 0.000000e+00 2.113883e+01 6.555030e+01
         vertex 0.000000e+00 1.635614e+01 7.534380e+01
      endloop
   endfacet
   facet normal -1.000000e+00 -0.000000e+00 0.000000e+00
      outer loop
         vertex 0.000000e+00 7.258949e+01 9.672470e+01
         vertex 0.000000e+00 1.635614e+01 7.534380e+01
         vertex 0.000000e+00 6.898901e+01 1.049833e+02
      endloop
   endfacet
   facet normal -1.000000e+00 0.000000e+00 0.000000e+00
      outer loop
         vertex 0.000000e+00 6.898901e+01 1.049833e+02
         vertex 0.000000e+00 1.635614e+01 7.534380e+01
         vertex 0.000000e+00 1.211800e+01 8.574171e+01
      endloop
   endfacet
   facet normal -1.000000e+00 -0.000000e+00 0.000000e+00
      outer loop
         vertex 0.000000e+00 6.898901e+01 1.049833e+02
         vertex 0.000000e+00 1.211800e+01 8.574171e+01
         vertex 0.000000e+00 6.592113e+01 1.139857e+02
      endloop
   endfacet
   facet normal -1.000000e+00 0.000000e+00 0.000000e+00
      outer loop
         vertex 0.000000e+00 6.592113e+01 1.139857e+02
         vertex 0.000000e+00 1.211800e+01 8.574171e+01
         vertex 0.000000e+00 8.457497e+00 9.672411e+01
      endloop
   endfacet
   facet normal -1.000000e+00 -0.000000e+00 0.000000e+00
      outer loop
         vertex 0.000000e+00 6.592113e+01 1.139857e+02
         vertex 0.000000e+00 8.457497e+00 9.672411e+01
         vertex 0.000000e+00 6.344573e+01 1.236747e+02
      endloop
   endfacet
   facet normal -1.000000e+00 0.000000e+00 0.000000e+00
      outer loop
         vertex 0.000000e+00 6.344573e+01 1.236747e+02
         vertex 0.000000e+00 8.457497e+00 9.672411e+01
         vertex 0.000000e+00 5.408809e+00 1.082665e+02
      endloop
   endfacet
   facet normal -1.000000e+00 -0.000000e+00 0.000000e+00
      outer loop
         vertex 0.000000e+00 6.344573e+01 1.236747e+02
         vertex 0.000000e+00 5.408809e+00 1.082665e+02
         vertex 0.000000e+00 6.160064e+01 1.340465e+02
      endloop
   endfacet
   facet normal -1.000000e+00 0.000000e+00 0.000000e+00
      outer loop
         vertex 0.000000e+00 5.408809e+00 1.082665e+02
         vertex 0.000000e+00 3.011152e+00 1.203185e+02
         vertex 0.000000e+00 6.160064e+01 1.340465e+02
      endloop
   endfacet
   facet normal -1.000000e+00 0.000000e+00 0.000000e+00
      outer loop
         vertex 0.000000e+00 6.160064e+01 1.340465e+02
         vertex 0.000000e+00 3.011152e+00 1.203185e+02
         vertex 0.000000e+00 1.294166e+00 1.328471e+02
      endloop
   endfacet
   facet normal -1.000000e+00 -0.000000e+00 0.000000e+00
      outer loop
         vertex 0.000000e+00 6.160064e+01 1.340465e+02
         vertex 0.000000e+00 1.294166e+00 1.328471e+02
         vertex 0.000000e+00 6.043795e+01 1.450381e+02
      endloop
   endfacet
   facet normal -1.000000e+00 -0.000000e+00 0.000000e+00
      outer loop
         vertex 0.000000e+00 6.043795e+01 1.450381e+02
         vertex 0.000000e+00 1.294166e+00 1.328471e+02
         vertex 0.000000e+00 2.842396e-01 1.458238e+02
      endloop
   endfacet
   facet normal -1.000000e+00 0.000000e+00 0.000000e+00
      outer loop
         vertex 0.000000e+00 6.043795e+01 1.450381e+02
         vertex 0.000000e+00 2.842396e-01 1.458238e+02
         vertex 0.000000e+00 6.000806e+01 1.557859e+02
      endloop
   endfacet
   facet normal -1.000000e+00 -0.000000e+00 0.000000e+00
      outer loop
         vertex 0.000000e+00 6.000806e+01 1.557859e+02
         vertex 0.000000e+00 2.842396e-01 1.458238e+02
         vertex 0.000000e+00 0.000000e+00 1.575000e+02
      endloop
   endfacet
   facet normal -1.000000e+00 0.000000e+00 0.000000e+00
      outer loop
         vertex 0.000000e+00 6.000806e+01 1.557859e+02
         vertex 0.000000e+00 0.000000e+00 1.575000e+02
         vertex 0.000000e+00 5.999999e+01 1.575000e+02
      endloop
   endfacet
   facet normal -1.000000e+00 0.000000e+00 -0.000000e+00
      outer loop
         vertex 0.000000e+00 1.768595e+02 1.251249e+02
         vertex 0.000000e+00 2.342361e+02 1.067578e+02
         vertex 0.000000e+00 1.745306e+02 1.155427e+02
      endloop
   endfacet
   facet normal -1.000000e+00 0.000000e+00 0.000000e+00
      outer loop
         vertex 0.000000e+00 1.745306e+02 1.155427e+02
         vertex 0.000000e+00 2.342361e+02 1.067578e+02
         vertex 0.000000e+00 2.310943e+02 9.524404e+01
      endloop
   endfacet
   facet normal -1.000000e+00 0.000000e+00 -0.000000e+00
      outer loop
         vertex 0.000000e+00 1.745306e+02 1.155427e+02
         vertex 0.000000e+00 2.310943e+02 9.524404e+01
         vertex 0.000000e+00 1.716384e+02 1.066421e+02
      endloop
   endfacet
   facet normal -1.000000e+00 0.000000e+00 0.000000e+00
      outer loop
         vertex 0.000000e+00 1.716384e+02 1.066421e+02
         vertex 0.000000e+00 2.310943e+02 9.524404e+01
         vertex 0.000000e+00 2.273240e+02 8.425394e+01
      endloop
   endfacet
   facet normal -1.000000e+00 0.000000e+00 -0.000000e+00
      outer loop
         vertex 0.000000e+00 1.716384e+02 1.066421e+02
         vertex 0.000000e+00 2.273240e+02 8.425394e+01
         vertex 0.000000e+00 1.682452e+02 9.847604e+01
      endloop
   endfacet
   facet normal -1.000000e+00 0.000000e+00 0.000000e+00
      outer loop
         vertex 0.000000e+00 1.682452e+02 9.847604e+01
         vertex 0.000000e+00 2.273240e+02 8.425394e+01
         vertex 0.000000e+00 2.229556e+02 7.382540e+01
      endloop
   endfacet
   facet normal -1.000000e+00 0.000000e+00 -0.000000e+00
      outer loop
         vertex 0.000000e+00 1.682452e+02 9.847604e+01
         vertex 0.000000e+00 2.229556e+02 7.382540e+01
         vertex 0.000000e+00 1.643973e+02 9.103934e+01
      endloop
   endfacet
   facet normal -1.000000e+00 0.000000e+00 0.000000e+00
      outer loop
         vertex 0.000000e+00 1.643973e+02 9.103934e+01
         vertex 0.000000e+00 2.229556e+02 7.382540e+01
         vertex 0.000000e+00 2.180281e+02 6.400487e+01
      endloop
   endfacet
   facet normal -1.000000e+00 0.000000e+00 0.000000e+00
      outer loop
         vertex 0.000000e+00 1.643973e+02 9.103934e+01
         vertex 0.000000e+00 2.180281e+02 6.400487e+01
         vertex 0.000000e+00 2.125748e+02 5.481381e+01
      endloop
   endfacet
   facet normal -1.000000e+00 0.000000e+00 -0.000000e+00
      outer loop
         vertex 0.000000e+00 1.800000e+02 1.575000e+02
         vertex 0.000000e+00 2.400000e+02 1.575000e+02
         vertex 0.000000e+00 1.796331e+02 1.460783e+02
      endloop
   endfacet
   facet normal -1.000000e+00 0.000000e+00 0.000000e+00
      outer loop
         vertex 0.000000e+00 1.796331e+02 1.460783e+02
         vertex 0.000000e+00 2.400000e+02 1.575000e+02
         vertex 0.000000e+00 2.396276e+02 1.441534e+02
      endloop
   endfacet
   facet normal -1.000000e+00 0.000000e+00 -0.000000e+00
      outer loop
         vertex 0.000000e+00 1.796331e+02 1.460783e+02
         vertex 0.000000e+00 2.396276e+02 1.441534e+02
         vertex 0.000000e+00 1.785745e+02 1.353239e+02
      endloop
   endfacet
   facet normal -1.000000e+00 0.000000e+00 0.000000e+00
      outer loop
         vertex 0.000000e+00 1.785745e+02 1.353239e+02
         vertex 0.000000e+00 2.396276e+02 1.441534e+02
         vertex 0.000000e+00 2.385277e+02 1.312413e+02
      endloop
   endfacet
   facet normal -1.000000e+00 0.000000e+00 -0.000000e+00
      outer loop
         vertex 0.000000e+00 1.785745e+02 1.353239e+02
         vertex 0.000000e+00 2.385277e+02 1.312413e+02
         vertex 0.000000e+00 1.768595e+02 1.251249e+02
      endloop
   endfacet
   facet normal -1.000000e+00 0.000000e+00 0.000000e+00
      outer loop
         vertex 0.000000e+00 1.768595e+02 1.251249e+02
         vertex 0.000000e+00 2.385277e+02 1.312413e+02
         vertex 0.000000e+00 2.367225e+02 1.187664e+02
      endloop
   endfacet
   facet normal -1.000000e+00 0.000000e+00 0.000000e+00
      outer loop
         vertex 0.000000e+00 1.768595e+02 1.251249e+02
         vertex 0.000000e+00 2.367225e+02 1.187664e+02
         vertex 0.000000e+00 2.342361e+02 1.067578e+02
      endloop
   endfacet
endsolid