solid 2D_outlet
   facet normal 0.000000e+00 -0.000000e+00 1.000000e+00
      outer loop
         vertex 2.000000e+00 0.000000e+00 1.575000e+02
         vertex 2.000000e+00 5.999999e+01 1.575000e+02
         vertex 0.000000e+00 0.000000e+00 1.575000e+02
      endloop
   endfacet
   facet normal 0.000000e+00 0.000000e+00 1.000000e+00
      outer loop
         vertex 0.000000e+00 0.000000e+00 1.575000e+02
         vertex 2.000000e+00 5.999999e+01 1.575000e+02
         vertex 0.000000e+00 5.999999e+01 1.575000e+02
      endloop
   endfacet
endsolid