solid wall
   facet normal 0.000000e+00 9.996072e-01 -2.802489e-02
      outer loop
         vertex 0.000000e+00 2.400000e+02 1.575000e+02
         vertex 2.000000e+00 2.400000e+02 1.575000e+02
         vertex 2.000000e+00 2.396240e+02 1.440893e+02
      endloop
   endfacet
   facet normal 0.000000e+00 9.996072e-01 -2.802489e-02
      outer loop
         vertex 0.000000e+00 2.400000e+02 1.575000e+02
         vertex 2.000000e+00 2.396240e+02 1.440893e+02
         vertex 0.000000e+00 2.396240e+02 1.440893e+02
      endloop
   endfacet
   facet normal 0.000000e+00 9.963550e-01 -8.530414e-02
      outer loop
         vertex 0.000000e+00 2.396240e+02 1.440893e+02
         vertex 2.000000e+00 2.396240e+02 1.440893e+02
         vertex 2.000000e+00 2.385134e+02 1.311173e+02
      endloop
   endfacet
   facet normal 0.000000e+00 9.963550e-01 -8.530414e-02
      outer loop
         vertex 0.000000e+00 2.396240e+02 1.440893e+02
         vertex 2.000000e+00 2.385134e+02 1.311173e+02
         vertex 0.000000e+00 2.385134e+02 1.311173e+02
      endloop
   endfacet
   facet normal 0.000000e+00 9.895874e-01 -1.439334e-01
      outer loop
         vertex 0.000000e+00 2.385134e+02 1.311173e+02
         vertex 2.000000e+00 2.385134e+02 1.311173e+02
         vertex 2.000000e+00 2.366909e+02 1.185871e+02
      endloop
   endfacet
   facet normal 0.000000e+00 9.895874e-01 -1.439334e-01
      outer loop
         vertex 0.000000e+00 2.385134e+02 1.311173e+02
         vertex 2.000000e+00 2.366909e+02 1.185871e+02
         vertex 0.000000e+00 2.366909e+02 1.185871e+02
      endloop
   endfacet
   facet normal 0.000000e+00 9.790181e-01 -2.037733e-01
      outer loop
         vertex 0.000000e+00 2.366909e+02 1.185871e+02
         vertex 2.000000e+00 2.366909e+02 1.185871e+02
         vertex 2.000000e+00 2.341810e+02 1.065282e+02
      endloop
   endfacet
   facet normal 0.000000e+00 9.790181e-01 -2.037733e-01
      outer loop
         vertex 0.000000e+00 2.366909e+02 1.185871e+02
         vertex 2.000000e+00 2.341810e+02 1.065282e+02
         vertex 0.000000e+00 2.341810e+02 1.065282e+02
      endloop
   endfacet
   facet normal 0.000000e+00 9.643614e-01 -2.645884e-01
      outer loop
         vertex 0.000000e+00 2.341810e+02 1.065282e+02
         vertex 2.000000e+00 2.341810e+02 1.065282e+02
         vertex 2.000000e+00 2.310096e+02 9.496947e+01
      endloop
   endfacet
   facet normal 0.000000e+00 9.643614e-01 -2.645884e-01
      outer loop
         vertex 0.000000e+00 2.341810e+02 1.065282e+02
         vertex 2.000000e+00 2.310096e+02 9.496947e+01
         vertex 0.000000e+00 2.310096e+02 9.496947e+01
      endloop
   endfacet
   facet normal 0.000000e+00 9.453188e-01 -3.261478e-01
      outer loop
         vertex 0.000000e+00 2.310096e+02 9.496947e+01
         vertex 2.000000e+00 2.310096e+02 9.496947e+01
         vertex 2.000000e+00 2.272044e+02 8.394022e+01
      endloop
   endfacet
   facet normal 0.000000e+00 9.453188e-01 -3.261478e-01
      outer loop
         vertex 0.000000e+00 2.310096e+02 9.496947e+01
         vertex 2.000000e+00 2.272044e+02 8.394022e+01
         vertex 0.000000e+00 2.272044e+02 8.394022e+01
      endloop
   endfacet
   facet normal 0.000000e+00 9.215181e-01 -3.883355e-01
      outer loop
         vertex 0.000000e+00 2.272044e+02 8.394022e+01
         vertex 2.000000e+00 2.272044e+02 8.394022e+01
         vertex 2.000000e+00 2.227961e+02 7.347947e+01
      endloop
   endfacet
   facet normal 0.000000e+00 9.215181e-01 -3.883355e-01
      outer loop
         vertex 0.000000e+00 2.272044e+02 8.394022e+01
         vertex 2.000000e+00 2.227961e+02 7.347947e+01
         vertex 0.000000e+00 2.227961e+02 7.347947e+01
      endloop
   endfacet
   facet normal 0.000000e+00 8.926552e-01 -4.507402e-01
      outer loop
         vertex 0.000000e+00 2.227961e+02 7.347947e+01
         vertex 2.000000e+00 2.227961e+02 7.347947e+01
         vertex 2.000000e+00 2.178245e+02 6.363352e+01
      endloop
   endfacet
   facet normal 0.000000e+00 8.926552e-01 -4.507402e-01
      outer loop
         vertex 0.000000e+00 2.227961e+02 7.347947e+01
         vertex 2.000000e+00 2.178245e+02 6.363352e+01
         vertex 0.000000e+00 2.178245e+02 6.363352e+01
      endloop
   endfacet
   facet normal 0.000000e+00 8.584932e-01 -5.128250e-01
      outer loop
         vertex 0.000000e+00 2.178245e+02 6.363352e+01
         vertex 2.000000e+00 2.178245e+02 6.363352e+01
         vertex 2.000000e+00 2.123231e+02 5.442397e+01
      endloop
   endfacet
   facet normal 0.000000e+00 8.584932e-01 -5.128250e-01
      outer loop
         vertex 0.000000e+00 2.178245e+02 6.363352e+01
         vertex 2.000000e+00 2.123231e+02 5.442397e+01
         vertex 0.000000e+00 2.123231e+02 5.442397e+01
      endloop
   endfacet
   facet normal 0.000000e+00 8.188344e-01 -5.740299e-01
      outer loop
         vertex 0.000000e+00 2.123231e+02 5.442397e+01
         vertex 2.000000e+00 2.123231e+02 5.442397e+01
         vertex 2.000000e+00 2.063257e+02 4.586885e+01
      endloop
   endfacet
   facet normal 0.000000e+00 8.188344e-01 -5.740299e-01
      outer loop
         vertex 0.000000e+00 2.123231e+02 5.442397e+01
         vertex 2.000000e+00 2.063257e+02 4.586885e+01
         vertex 0.000000e+00 2.063257e+02 4.586885e+01
      endloop
   endfacet
   facet normal 0.000000e+00 7.865906e-01 -6.174748e-01
      outer loop
         vertex 0.000000e+00 2.063257e+02 4.586885e+01
         vertex 2.000000e+00 2.063257e+02 4.586885e+01
         vertex 2.000000e+00 2.034992e+02 4.226819e+01
      endloop
   endfacet
   facet normal 0.000000e+00 7.865906e-01 -6.174748e-01
      outer loop
         vertex 0.000000e+00 2.063257e+02 4.586885e+01
         vertex 2.000000e+00 2.034992e+02 4.226819e+01
         vertex 0.000000e+00 2.034992e+02 4.226819e+01
      endloop
   endfacet
   facet normal 0.000000e+00 7.513899e-01 -6.598585e-01
      outer loop
         vertex 0.000000e+00 2.034992e+02 4.226819e+01
         vertex 2.000000e+00 2.034992e+02 4.226819e+01
         vertex 2.000000e+00 1.968810e+02 3.473192e+01
      endloop
   endfacet
   facet normal 0.000000e+00 7.513899e-01 -6.598585e-01
      outer loop
         vertex 0.000000e+00 2.034992e+02 4.226819e+01
         vertex 2.000000e+00 1.968810e+02 3.473192e+01
         vertex 0.000000e+00 1.968810e+02 3.473192e+01
      endloop
   endfacet
   facet normal 0.000000e+00 6.977340e-01 -7.163569e-01
      outer loop
         vertex 0.000000e+00 1.968810e+02 3.473192e+01
         vertex 2.000000e+00 1.968810e+02 3.473192e+01
         vertex 2.000000e+00 1.898488e+02 2.788253e+01
      endloop
   endfacet
   facet normal 0.000000e+00 6.977340e-01 -7.163569e-01
      outer loop
         vertex 0.000000e+00 1.968810e+02 3.473192e+01
         vertex 2.000000e+00 1.898488e+02 2.788253e+01
         vertex 0.000000e+00 1.898488e+02 2.788253e+01
      endloop
   endfacet
   facet normal 0.000000e+00 6.382613e-01 -7.698198e-01
      outer loop
         vertex 0.000000e+00 1.898488e+02 2.788253e+01
         vertex 2.000000e+00 1.898488e+02 2.788253e+01
         vertex 2.000000e+00 1.824629e+02 2.175890e+01
      endloop
   endfacet
   facet normal 0.000000e+00 6.382613e-01 -7.698198e-01
      outer loop
         vertex 0.000000e+00 1.898488e+02 2.788253e+01
         vertex 2.000000e+00 1.824629e+02 2.175890e+01
         vertex 0.000000e+00 1.824629e+02 2.175890e+01
      endloop
   endfacet
   facet normal 0.000000e+00 5.731401e-01 -8.194574e-01
      outer loop
         vertex 0.000000e+00 1.824629e+02 2.175890e+01
         vertex 2.000000e+00 1.824629e+02 2.175890e+01
         vertex 2.000000e+00 1.747697e+02 1.637812e+01
      endloop
   endfacet
   facet normal 0.000000e+00 5.731401e-01 -8.194574e-01
      outer loop
         vertex 0.000000e+00 1.824629e+02 2.175890e+01
         vertex 2.000000e+00 1.747697e+02 1.637812e+01
         vertex 0.000000e+00 1.747697e+02 1.637812e+01
      endloop
   endfacet
   facet normal 0.000000e+00 5.026445e-01 -8.644932e-01
      outer loop
         vertex 0.000000e+00 1.747697e+02 1.637812e+01
         vertex 2.000000e+00 1.747697e+02 1.637812e+01
         vertex 2.000000e+00 1.668120e+02 1.175131e+01
      endloop
   endfacet
   facet normal 0.000000e+00 5.026445e-01 -8.644932e-01
      outer loop
         vertex 0.000000e+00 1.747697e+02 1.637812e+01
         vertex 2.000000e+00 1.668120e+02 1.175131e+01
         vertex 0.000000e+00 1.668120e+02 1.175131e+01
      endloop
   endfacet
   facet normal 0.000000e+00 4.272426e-01 -9.041370e-01
      outer loop
         vertex 0.000000e+00 1.668120e+02 1.175131e+01
         vertex 2.000000e+00 1.668120e+02 1.175131e+01
         vertex 2.000000e+00 1.586447e+02 7.891893e+00
      endloop
   endfacet
   facet normal 0.000000e+00 4.272426e-01 -9.041370e-01
      outer loop
         vertex 0.000000e+00 1.668120e+02 1.175131e+01
         vertex 2.000000e+00 1.586447e+02 7.891893e+00
         vertex 0.000000e+00 1.586447e+02 7.891893e+00
      endloop
   endfacet
   facet normal 0.000000e+00 3.478466e-01 -9.375515e-01
      outer loop
         vertex 0.000000e+00 1.586447e+02 7.891893e+00
         vertex 2.000000e+00 1.586447e+02 7.891893e+00
         vertex 2.000000e+00 1.503016e+02 4.796460e+00
      endloop
   endfacet
   facet normal 0.000000e+00 3.478466e-01 -9.375515e-01
      outer loop
         vertex 0.000000e+00 1.586447e+02 7.891893e+00
         vertex 2.000000e+00 1.503016e+02 4.796460e+00
         vertex 0.000000e+00 1.503016e+02 4.796460e+00
      endloop
   endfacet
   facet normal 0.000000e+00 2.648935e-01 -9.642777e-01
      outer loop
         vertex 0.000000e+00 1.503016e+02 4.796460e+00
         vertex 2.000000e+00 1.503016e+02 4.796460e+00
         vertex 2.000000e+00 1.418138e+02 2.464801e+00
      endloop
   endfacet
   facet normal 0.000000e+00 2.648935e-01 -9.642777e-01
      outer loop
         vertex 0.000000e+00 1.503016e+02 4.796460e+00
         vertex 2.000000e+00 1.418138e+02 2.464801e+00
         vertex 0.000000e+00 1.418138e+02 2.464801e+00
      endloop
   endfacet
   facet normal 0.000000e+00 1.791304e-01 -9.838253e-01
      outer loop
         vertex 0.000000e+00 1.418138e+02 2.464801e+00
         vertex 2.000000e+00 1.418138e+02 2.464801e+00
         vertex 2.000000e+00 1.332458e+02 9.047836e-01
      endloop
   endfacet
   facet normal 0.000000e+00 1.791304e-01 -9.838253e-01
      outer loop
         vertex 0.000000e+00 1.418138e+02 2.464801e+00
         vertex 2.000000e+00 1.332458e+02 9.047836e-01
         vertex 0.000000e+00 1.332458e+02 9.047836e-01
      endloop
   endfacet
   facet normal 0.000000e+00 9.171703e-02 -9.957851e-01
      outer loop
         vertex 0.000000e+00 1.332458e+02 9.047836e-01
         vertex 2.000000e+00 1.332458e+02 9.047836e-01
         vertex 2.000000e+00 1.246138e+02 1.097322e-01
      endloop
   endfacet
   facet normal 0.000000e+00 9.171703e-02 -9.957851e-01
      outer loop
         vertex 0.000000e+00 1.332458e+02 9.047836e-01
         vertex 2.000000e+00 1.246138e+02 1.097322e-01
         vertex 0.000000e+00 1.246138e+02 1.097322e-01
      endloop
   endfacet
   facet normal 0.000000e+00 3.253794e-03 -9.999947e-01
      outer loop
         vertex 0.000000e+00 1.246138e+02 1.097322e-01
         vertex 2.000000e+00 1.246138e+02 1.097322e-01
         vertex 2.000000e+00 1.160179e+02 8.176267e-02
      endloop
   endfacet
   facet normal 0.000000e+00 3.253794e-03 -9.999947e-01
      outer loop
         vertex 0.000000e+00 1.246138e+02 1.097322e-01
         vertex 2.000000e+00 1.160179e+02 8.176267e-02
         vertex 0.000000e+00 1.160179e+02 8.176267e-02
      endloop
   endfacet
   facet normal 0.000000e+00 -8.493777e-02 -9.963863e-01
      outer loop
         vertex 0.000000e+00 1.160179e+02 8.176267e-02
         vertex 2.000000e+00 1.160179e+02 8.176267e-02
         vertex 2.000000e+00 1.074485e+02 8.122623e-01
      endloop
   endfacet
   facet normal 0.000000e+00 -8.493777e-02 -9.963863e-01
      outer loop
         vertex 0.000000e+00 1.160179e+02 8.176267e-02
         vertex 2.000000e+00 1.074485e+02 8.122623e-01
         vertex 0.000000e+00 1.074485e+02 8.122623e-01
      endloop
   endfacet
   facet normal 0.000000e+00 -1.718070e-01 -9.851306e-01
      outer loop
         vertex 0.000000e+00 1.074485e+02 8.122623e-01
         vertex 2.000000e+00 1.074485e+02 8.122623e-01
         vertex 2.000000e+00 9.893909e+01 2.296314e+00
      endloop
   endfacet
   facet normal 0.000000e+00 -1.718070e-01 -9.851306e-01
      outer loop
         vertex 0.000000e+00 1.074485e+02 8.122623e-01
         vertex 2.000000e+00 9.893909e+01 2.296314e+00
         vertex 0.000000e+00 9.893909e+01 2.296314e+00
      endloop
   endfacet
   facet normal 0.000000e+00 -2.569678e-01 -9.664200e-01
      outer loop
         vertex 0.000000e+00 9.893909e+01 2.296314e+00
         vertex 2.000000e+00 9.893909e+01 2.296314e+00
         vertex 2.000000e+00 9.053218e+01 4.531682e+00
      endloop
   endfacet
   facet normal 0.000000e+00 -2.569678e-01 -9.664200e-01
      outer loop
         vertex 0.000000e+00 9.893909e+01 2.296314e+00
         vertex 2.000000e+00 9.053218e+01 4.531682e+00
         vertex 0.000000e+00 9.053218e+01 4.531682e+00
      endloop
   endfacet
   facet normal 0.000000e+00 -3.392308e-01 -9.407032e-01
      outer loop
         vertex 0.000000e+00 9.053218e+01 4.531682e+00
         vertex 2.000000e+00 9.053218e+01 4.531682e+00
         vertex 2.000000e+00 8.228777e+01 7.504731e+00
      endloop
   endfacet
   facet normal 0.000000e+00 -3.392308e-01 -9.407032e-01
      outer loop
         vertex 0.000000e+00 9.053218e+01 4.531682e+00
         vertex 2.000000e+00 8.228777e+01 7.504731e+00
         vertex 0.000000e+00 8.228777e+01 7.504731e+00
      endloop
   endfacet
   facet normal 0.000000e+00 -4.179145e-01 -9.084864e-01
      outer loop
         vertex 0.000000e+00 8.228777e+01 7.504731e+00
         vertex 2.000000e+00 8.228777e+01 7.504731e+00
         vertex 2.000000e+00 7.421473e+01 1.121843e+01
      endloop
   endfacet
   facet normal 0.000000e+00 -4.179145e-01 -9.084864e-01
      outer loop
         vertex 0.000000e+00 8.228777e+01 7.504731e+00
         vertex 2.000000e+00 7.421473e+01 1.121843e+01
         vertex 0.000000e+00 7.421473e+01 1.121843e+01
      endloop
   endfacet
   facet normal 0.000000e+00 -4.926258e-01 -8.702412e-01
      outer loop
         vertex 0.000000e+00 7.421473e+01 1.121843e+01
         vertex 2.000000e+00 7.421473e+01 1.121843e+01
         vertex 2.000000e+00 6.637669e+01 1.565538e+01
      endloop
   endfacet
   facet normal 0.000000e+00 -4.926258e-01 -8.702412e-01
      outer loop
         vertex 0.000000e+00 7.421473e+01 1.121843e+01
         vertex 2.000000e+00 6.637669e+01 1.565538e+01
         vertex 0.000000e+00 6.637669e+01 1.565538e+01
      endloop
   endfacet
   facet normal 0.000000e+00 -5.623952e-01 -8.268686e-01
      outer loop
         vertex 0.000000e+00 6.637669e+01 1.565538e+01
         vertex 2.000000e+00 6.637669e+01 1.565538e+01
         vertex 2.000000e+00 5.881372e+01 2.079934e+01
      endloop
   endfacet
   facet normal 0.000000e+00 -5.623952e-01 -8.268686e-01
      outer loop
         vertex 0.000000e+00 6.637669e+01 1.565538e+01
         vertex 2.000000e+00 5.881372e+01 2.079934e+01
         vertex 0.000000e+00 5.881372e+01 2.079934e+01
      endloop
   endfacet
   facet normal 0.000000e+00 -6.269978e-01 -7.790210e-01
      outer loop
         vertex 0.000000e+00 5.881372e+01 2.079934e+01
         vertex 2.000000e+00 5.881372e+01 2.079934e+01
         vertex 2.000000e+00 5.152771e+01 2.666351e+01
      endloop
   endfacet
   facet normal 0.000000e+00 -6.269978e-01 -7.790210e-01
      outer loop
         vertex 0.000000e+00 5.881372e+01 2.079934e+01
         vertex 2.000000e+00 5.152771e+01 2.666351e+01
         vertex 0.000000e+00 5.152771e+01 2.666351e+01
      endloop
   endfacet
   facet normal 0.000000e+00 -6.863171e-01 -7.273024e-01
      outer loop
         vertex 0.000000e+00 5.152771e+01 2.666351e+01
         vertex 2.000000e+00 5.152771e+01 2.666351e+01
         vertex 2.000000e+00 4.456030e+01 3.323829e+01
      endloop
   endfacet
   facet normal 0.000000e+00 -6.863171e-01 -7.273024e-01
      outer loop
         vertex 0.000000e+00 5.152771e+01 2.666351e+01
         vertex 2.000000e+00 4.456030e+01 3.323829e+01
         vertex 0.000000e+00 4.456030e+01 3.323829e+01
      endloop
   endfacet
   facet normal 0.000000e+00 -7.402162e-01 -6.723689e-01
      outer loop
         vertex 0.000000e+00 4.456030e+01 3.323829e+01
         vertex 2.000000e+00 4.456030e+01 3.323829e+01
         vertex 2.000000e+00 3.795454e+01 4.051062e+01
      endloop
   endfacet
   facet normal 0.000000e+00 -7.402162e-01 -6.723689e-01
      outer loop
         vertex 0.000000e+00 4.456030e+01 3.323829e+01
         vertex 2.000000e+00 3.795454e+01 4.051062e+01
         vertex 0.000000e+00 3.795454e+01 4.051062e+01
      endloop
   endfacet
   facet normal 0.000000e+00 -7.887798e-01 -6.146758e-01
      outer loop
         vertex 0.000000e+00 3.795454e+01 4.051062e+01
         vertex 2.000000e+00 3.795454e+01 4.051062e+01
         vertex 2.000000e+00 3.171925e+01 4.851203e+01
      endloop
   endfacet
   facet normal 0.000000e+00 -7.887798e-01 -6.146758e-01
      outer loop
         vertex 0.000000e+00 3.795454e+01 4.051062e+01
         vertex 2.000000e+00 3.171925e+01 4.851203e+01
         vertex 0.000000e+00 3.171925e+01 4.851203e+01
      endloop
   endfacet
   facet normal 0.000000e+00 -8.316815e-01 -5.552530e-01
      outer loop
         vertex 0.000000e+00 3.171925e+01 4.851203e+01
         vertex 2.000000e+00 3.171925e+01 4.851203e+01
         vertex 2.000000e+00 2.596961e+01 5.712409e+01
      endloop
   endfacet
   facet normal 0.000000e+00 -8.316815e-01 -5.552530e-01
      outer loop
         vertex 0.000000e+00 3.171925e+01 4.851203e+01
         vertex 2.000000e+00 2.596961e+01 5.712409e+01
         vertex 0.000000e+00 2.596961e+01 5.712409e+01
      endloop
   endfacet
   facet normal 0.000000e+00 -8.690927e-01 -4.946493e-01
      outer loop
         vertex 0.000000e+00 2.596961e+01 5.712409e+01
         vertex 2.000000e+00 2.596961e+01 5.712409e+01
         vertex 2.000000e+00 2.069257e+01 6.639577e+01
      endloop
   endfacet
   facet normal 0.000000e+00 -8.690927e-01 -4.946493e-01
      outer loop
         vertex 0.000000e+00 2.596961e+01 5.712409e+01
         vertex 2.000000e+00 2.069257e+01 6.639577e+01
         vertex 0.000000e+00 2.069257e+01 6.639577e+01
      endloop
   endfacet
   facet normal 0.000000e+00 -9.012868e-01 -4.332230e-01
      outer loop
         vertex 0.000000e+00 2.069257e+01 6.639577e+01
         vertex 2.000000e+00 2.069257e+01 6.639577e+01
         vertex 2.000000e+00 1.593526e+01 7.629300e+01
      endloop
   endfacet
   facet normal 0.000000e+00 -9.012868e-01 -4.332230e-01
      outer loop
         vertex 0.000000e+00 2.069257e+01 6.639577e+01
         vertex 2.000000e+00 1.593526e+01 7.629300e+01
         vertex 0.000000e+00 1.593526e+01 7.629300e+01
      endloop
   endfacet
   facet normal 0.000000e+00 -9.284155e-01 -3.715437e-01
      outer loop
         vertex 0.000000e+00 1.593526e+01 7.629300e+01
         vertex 2.000000e+00 1.593526e+01 7.629300e+01
         vertex 2.000000e+00 1.173092e+01 8.679881e+01
      endloop
   endfacet
   facet normal 0.000000e+00 -9.284155e-01 -3.715437e-01
      outer loop
         vertex 0.000000e+00 1.593526e+01 7.629300e+01
         vertex 2.000000e+00 1.173092e+01 8.679881e+01
         vertex 0.000000e+00 1.173092e+01 8.679881e+01
      endloop
   endfacet
   facet normal 0.000000e+00 -9.507239e-01 -3.100388e-01
      outer loop
         vertex 0.000000e+00 1.173092e+01 8.679881e+01
         vertex 2.000000e+00 1.173092e+01 8.679881e+01
         vertex 2.000000e+00 8.113146e+00 9.789261e+01
      endloop
   endfacet
   facet normal 0.000000e+00 -9.507239e-01 -3.100388e-01
      outer loop
         vertex 0.000000e+00 1.173092e+01 8.679881e+01
         vertex 2.000000e+00 8.113146e+00 9.789261e+01
         vertex 0.000000e+00 8.113146e+00 9.789261e+01
      endloop
   endfacet
   facet normal 0.000000e+00 -9.685138e-01 -2.489598e-01
      outer loop
         vertex 0.000000e+00 8.113146e+00 9.789261e+01
         vertex 2.000000e+00 8.113146e+00 9.789261e+01
         vertex 2.000000e+00 5.117089e+00 1.095480e+02
      endloop
   endfacet
   facet normal 0.000000e+00 -9.685138e-01 -2.489598e-01
      outer loop
         vertex 0.000000e+00 8.113146e+00 9.789261e+01
         vertex 2.000000e+00 5.117089e+00 1.095480e+02
         vertex 0.000000e+00 5.117089e+00 1.095480e+02
      endloop
   endfacet
   facet normal 0.000000e+00 -9.820740e-01 -1.884960e-01
      outer loop
         vertex 0.000000e+00 5.117089e+00 1.095480e+02
         vertex 2.000000e+00 5.117089e+00 1.095480e+02
         vertex 2.000000e+00 2.782151e+00 1.217131e+02
      endloop
   endfacet
   facet normal 0.000000e+00 -9.820740e-01 -1.884960e-01
      outer loop
         vertex 0.000000e+00 5.117089e+00 1.095480e+02
         vertex 2.000000e+00 2.782151e+00 1.217131e+02
         vertex 0.000000e+00 2.782151e+00 1.217131e+02
      endloop
   endfacet
   facet normal 0.000000e+00 -9.916465e-01 -1.289850e-01
      outer loop
         vertex 0.000000e+00 2.782151e+00 1.217131e+02
         vertex 2.000000e+00 2.782151e+00 1.217131e+02
         vertex 2.000000e+00 1.137629e+00 1.343563e+02
      endloop
   endfacet
   facet normal 0.000000e+00 -9.916465e-01 -1.289850e-01
      outer loop
         vertex 0.000000e+00 2.782151e+00 1.217131e+02
         vertex 2.000000e+00 1.137629e+00 1.343563e+02
         vertex 0.000000e+00 1.137629e+00 1.343563e+02
      endloop
   endfacet
   facet normal 0.000000e+00 -9.974999e-01 -7.066797e-02
      outer loop
         vertex 0.000000e+00 1.137629e+00 1.343563e+02
         vertex 2.000000e+00 1.137629e+00 1.343563e+02
         vertex 2.000000e+00 2.101064e-01 1.474486e+02
      endloop
   endfacet
   facet normal 0.000000e+00 -9.974999e-01 -7.066797e-02
      outer loop
         vertex 0.000000e+00 1.137629e+00 1.343563e+02
         vertex 2.000000e+00 2.101064e-01 1.474486e+02
         vertex 0.000000e+00 2.101064e-01 1.474486e+02
      endloop
   endfacet
   facet normal 0.000000e+00 -9.997816e-01 -2.089866e-02
      outer loop
         vertex 0.000000e+00 2.101064e-01 1.474486e+02
         vertex 2.000000e+00 2.101064e-01 1.474486e+02
         vertex 2.000000e+00 0.000000e+00 1.575000e+02
      endloop
   endfacet
   facet normal 0.000000e+00 -9.997816e-01 -2.089866e-02
      outer loop
         vertex 0.000000e+00 2.101064e-01 1.474486e+02
         vertex 2.000000e+00 0.000000e+00 1.575000e+02
         vertex 0.000000e+00 0.000000e+00 1.575000e+02
      endloop
   endfacet
   facet normal 0.000000e+00 -9.994795e-01 3.226174e-02
      outer loop
         vertex 2.000000e+00 1.800000e+02 1.575000e+02
         vertex 0.000000e+00 1.800000e+02 1.575000e+02
         vertex 0.000000e+00 1.796296e+02 1.460240e+02
      endloop
   endfacet
   facet normal 0.000000e+00 -9.994795e-01 3.226174e-02
      outer loop
         vertex 2.000000e+00 1.800000e+02 1.575000e+02
         vertex 0.000000e+00 1.796296e+02 1.460240e+02
         vertex 2.000000e+00 1.796296e+02 1.460240e+02
      endloop
   endfacet
   facet normal 0.000000e+00 -9.951422e-01 9.844758e-02
      outer loop
         vertex 2.000000e+00 1.796296e+02 1.460240e+02
         vertex 0.000000e+00 1.796296e+02 1.460240e+02
         vertex 0.000000e+00 1.785610e+02 1.352221e+02
      endloop
   endfacet
   facet normal 0.000000e+00 -9.951422e-01 9.844758e-02
      outer loop
         vertex 2.000000e+00 1.796296e+02 1.460240e+02
         vertex 0.000000e+00 1.785610e+02 1.352221e+02
         vertex 2.000000e+00 1.785610e+02 1.352221e+02
      endloop
   endfacet
   facet normal 0.000000e+00 -9.860147e-01 1.666583e-01
      outer loop
         vertex 2.000000e+00 1.785610e+02 1.352221e+02
         vertex 0.000000e+00 1.785610e+02 1.352221e+02
         vertex 0.000000e+00 1.768300e+02 1.249814e+02
      endloop
   endfacet
   facet normal 0.000000e+00 -9.860147e-01 1.666583e-01
      outer loop
         vertex 2.000000e+00 1.785610e+02 1.352221e+02
         vertex 0.000000e+00 1.768300e+02 1.249814e+02
         vertex 2.000000e+00 1.768300e+02 1.249814e+02
      endloop
   endfacet
   facet normal 0.000000e+00 -9.714156e-01 2.373852e-01
      outer loop
         vertex 2.000000e+00 1.768300e+02 1.249814e+02
         vertex 0.000000e+00 1.768300e+02 1.249814e+02
         vertex 0.000000e+00 1.744799e+02 1.153642e+02
      endloop
   endfacet
   facet normal 0.000000e+00 -9.714156e-01 2.373852e-01
      outer loop
         vertex 2.000000e+00 1.768300e+02 1.249814e+02
         vertex 0.000000e+00 1.744799e+02 1.153642e+02
         vertex 2.000000e+00 1.744799e+02 1.153642e+02
      endloop
   endfacet
   facet normal 0.000000e+00 -9.505266e-01 3.106433e-01
      outer loop
         vertex 2.000000e+00 1.744799e+02 1.153642e+02
         vertex 0.000000e+00 1.744799e+02 1.153642e+02
         vertex 0.000000e+00 1.715622e+02 1.064364e+02
      endloop
   endfacet
   facet normal 0.000000e+00 -9.505266e-01 3.106433e-01
      outer loop
         vertex 2.000000e+00 1.744799e+02 1.153642e+02
         vertex 0.000000e+00 1.715622e+02 1.064364e+02
         vertex 2.000000e+00 1.715622e+02 1.064364e+02
      endloop
   endfacet
   facet normal 0.000000e+00 -9.226219e-01 3.857057e-01
      outer loop
         vertex 2.000000e+00 1.715622e+02 1.064364e+02
         vertex 0.000000e+00 1.715622e+02 1.064364e+02
         vertex 0.000000e+00 1.681402e+02 9.825086e+01
      endloop
   endfacet
   facet normal 0.000000e+00 -9.226219e-01 3.857057e-01
      outer loop
         vertex 2.000000e+00 1.715622e+02 1.064364e+02
         vertex 0.000000e+00 1.681402e+02 9.825086e+01
         vertex 2.000000e+00 1.681402e+02 9.825086e+01
      endloop
   endfacet
   facet normal 0.000000e+00 -8.869136e-01 4.619354e-01
      outer loop
         vertex 2.000000e+00 1.681402e+02 9.825086e+01
         vertex 0.000000e+00 1.681402e+02 9.825086e+01
         vertex 0.000000e+00 1.642606e+02 9.080208e+01
      endloop
   endfacet
   facet normal 0.000000e+00 -8.869136e-01 4.619354e-01
      outer loop
         vertex 2.000000e+00 1.681402e+02 9.825086e+01
         vertex 0.000000e+00 1.642606e+02 9.080208e+01
         vertex 2.000000e+00 1.642606e+02 9.080208e+01
      endloop
   endfacet
   facet normal 0.000000e+00 -8.421654e-01 5.392193e-01
      outer loop
         vertex 2.000000e+00 1.642606e+02 9.080208e+01
         vertex 0.000000e+00 1.642606e+02 9.080208e+01
         vertex 0.000000e+00 1.599910e+02 8.413365e+01
      endloop
   endfacet
   facet normal 0.000000e+00 -8.421654e-01 5.392193e-01
      outer loop
         vertex 2.000000e+00 1.642606e+02 9.080208e+01
         vertex 0.000000e+00 1.599910e+02 8.413365e+01
         vertex 2.000000e+00 1.599910e+02 8.413365e+01
      endloop
   endfacet
   facet normal 0.000000e+00 -7.866132e-01 6.174460e-01
      outer loop
         vertex 2.000000e+00 1.599910e+02 8.413365e+01
         vertex 0.000000e+00 1.599910e+02 8.413365e+01
         vertex 0.000000e+00 1.553614e+02 7.823564e+01
      endloop
   endfacet
   facet normal 0.000000e+00 -7.866132e-01 6.174460e-01
      outer loop
         vertex 2.000000e+00 1.599910e+02 8.413365e+01
         vertex 0.000000e+00 1.553614e+02 7.823564e+01
         vertex 2.000000e+00 1.553614e+02 7.823564e+01
      endloop
   endfacet
   facet normal 0.000000e+00 -7.198341e-01 6.941461e-01
      outer loop
         vertex 2.000000e+00 1.553614e+02 7.823564e+01
         vertex 0.000000e+00 1.553614e+02 7.823564e+01
         vertex 0.000000e+00 1.505554e+02 7.325181e+01
      endloop
   endfacet
   facet normal 0.000000e+00 -7.198341e-01 6.941461e-01
      outer loop
         vertex 2.000000e+00 1.553614e+02 7.823564e+01
         vertex 0.000000e+00 1.505554e+02 7.325181e+01
         vertex 2.000000e+00 1.505554e+02 7.325181e+01
      endloop
   endfacet
   facet normal 0.000000e+00 -6.411838e-01 7.673873e-01
      outer loop
         vertex 2.000000e+00 1.505554e+02 7.325181e+01
         vertex 0.000000e+00 1.505554e+02 7.325181e+01
         vertex 0.000000e+00 1.455545e+02 6.907336e+01
      endloop
   endfacet
   facet normal 0.000000e+00 -6.411838e-01 7.673873e-01
      outer loop
         vertex 2.000000e+00 1.505554e+02 7.325181e+01
         vertex 0.000000e+00 1.455545e+02 6.907336e+01
         vertex 2.000000e+00 1.455545e+02 6.907336e+01
      endloop
   endfacet
   facet normal 0.000000e+00 -5.493370e-01 8.356009e-01
      outer loop
         vertex 2.000000e+00 1.455545e+02 6.907336e+01
         vertex 0.000000e+00 1.455545e+02 6.907336e+01
         vertex 0.000000e+00 1.404398e+02 6.571090e+01
      endloop
   endfacet
   facet normal 0.000000e+00 -5.493370e-01 8.356009e-01
      outer loop
         vertex 2.000000e+00 1.455545e+02 6.907336e+01
         vertex 0.000000e+00 1.404398e+02 6.571090e+01
         vertex 2.000000e+00 1.404398e+02 6.571090e+01
      endloop
   endfacet
   facet normal 0.000000e+00 -4.438246e-01 8.961137e-01
      outer loop
         vertex 2.000000e+00 1.404398e+02 6.571090e+01
         vertex 0.000000e+00 1.404398e+02 6.571090e+01
         vertex 0.000000e+00 1.352725e+02 6.315164e+01
      endloop
   endfacet
   facet normal 0.000000e+00 -4.438246e-01 8.961137e-01
      outer loop
         vertex 2.000000e+00 1.404398e+02 6.571090e+01
         vertex 0.000000e+00 1.352725e+02 6.315164e+01
         vertex 2.000000e+00 1.352725e+02 6.315164e+01
      endloop
   endfacet
   facet normal 0.000000e+00 -3.252473e-01 9.456290e-01
      outer loop
         vertex 2.000000e+00 1.352725e+02 6.315164e+01
         vertex 0.000000e+00 1.352725e+02 6.315164e+01
         vertex 0.000000e+00 1.300581e+02 6.135815e+01
      endloop
   endfacet
   facet normal 0.000000e+00 -3.252473e-01 9.456290e-01
      outer loop
         vertex 2.000000e+00 1.352725e+02 6.315164e+01
         vertex 0.000000e+00 1.300581e+02 6.135815e+01
         vertex 2.000000e+00 1.300581e+02 6.135815e+01
      endloop
   endfacet
   facet normal 0.000000e+00 -1.960800e-01 9.805879e-01
      outer loop
         vertex 2.000000e+00 1.300581e+02 6.135815e+01
         vertex 0.000000e+00 1.300581e+02 6.135815e+01
         vertex 0.000000e+00 1.248149e+02 6.030972e+01
      endloop
   endfacet
   facet normal 0.000000e+00 -1.960800e-01 9.805879e-01
      outer loop
         vertex 2.000000e+00 1.300581e+02 6.135815e+01
         vertex 0.000000e+00 1.248149e+02 6.030972e+01
         vertex 2.000000e+00 1.248149e+02 6.030972e+01
      endloop
   endfacet
   facet normal 0.000000e+00 -6.419114e-02 9.979376e-01
      outer loop
         vertex 2.000000e+00 1.248149e+02 6.030972e+01
         vertex 0.000000e+00 1.248149e+02 6.030972e+01
         vertex 0.000000e+00 1.200000e+02 6.000000e+01
      endloop
   endfacet
   facet normal 0.000000e+00 -6.419114e-02 9.979376e-01
      outer loop
         vertex 2.000000e+00 1.248149e+02 6.030972e+01
         vertex 0.000000e+00 1.200000e+02 6.000000e+01
         vertex 2.000000e+00 1.200000e+02 6.000000e+01
      endloop
   endfacet
   facet normal 0.000000e+00 7.097280e-02 9.974783e-01
      outer loop
         vertex 2.000000e+00 1.200000e+02 6.000000e+01
         vertex 0.000000e+00 1.200000e+02 6.000000e+01
         vertex 0.000000e+00 1.146771e+02 6.037874e+01
      endloop
   endfacet
   facet normal 0.000000e+00 7.097280e-02 9.974783e-01
      outer loop
         vertex 2.000000e+00 1.200000e+02 6.000000e+01
         vertex 0.000000e+00 1.146771e+02 6.037874e+01
         vertex 2.000000e+00 1.146771e+02 6.037874e+01
      endloop
   endfacet
   facet normal 0.000000e+00 2.106222e-01 9.775675e-01
      outer loop
         vertex 2.000000e+00 1.146771e+02 6.037874e+01
         vertex 0.000000e+00 1.146771e+02 6.037874e+01
         vertex 0.000000e+00 1.093076e+02 6.153562e+01
      endloop
   endfacet
   facet normal 0.000000e+00 2.106222e-01 9.775675e-01
      outer loop
         vertex 2.000000e+00 1.146771e+02 6.037874e+01
         vertex 0.000000e+00 1.093076e+02 6.153562e+01
         vertex 2.000000e+00 1.093076e+02 6.153562e+01
      endloop
   endfacet
   facet normal 0.000000e+00 3.424999e-01 9.395179e-01
      outer loop
         vertex 2.000000e+00 1.093076e+02 6.153562e+01
         vertex 0.000000e+00 1.093076e+02 6.153562e+01
         vertex 0.000000e+00 1.039108e+02 6.350302e+01
      endloop
   endfacet
   facet normal 0.000000e+00 3.424999e-01 9.395179e-01
      outer loop
         vertex 2.000000e+00 1.093076e+02 6.153562e+01
         vertex 0.000000e+00 1.039108e+02 6.350302e+01
         vertex 2.000000e+00 1.039108e+02 6.350302e+01
      endloop
   endfacet
   facet normal 0.000000e+00 4.633137e-01 8.861943e-01
      outer loop
         vertex 2.000000e+00 1.039108e+02 6.350302e+01
         vertex 0.000000e+00 1.039108e+02 6.350302e+01
         vertex 0.000000e+00 9.856754e+01 6.629656e+01
      endloop
   endfacet
   facet normal 0.000000e+00 4.633137e-01 8.861943e-01
      outer loop
         vertex 2.000000e+00 1.039108e+02 6.350302e+01
         vertex 0.000000e+00 9.856754e+01 6.629656e+01
         vertex 2.000000e+00 9.856754e+01 6.629656e+01
      endloop
   endfacet
   facet normal 0.000000e+00 5.698385e-01 8.217567e-01
      outer loop
         vertex 2.000000e+00 9.856754e+01 6.629656e+01
         vertex 0.000000e+00 9.856754e+01 6.629656e+01
         vertex 0.000000e+00 9.329014e+01 6.995611e+01
      endloop
   endfacet
   facet normal 0.000000e+00 5.698385e-01 8.217567e-01
      outer loop
         vertex 2.000000e+00 9.856754e+01 6.629656e+01
         vertex 0.000000e+00 9.329014e+01 6.995611e+01
         vertex 2.000000e+00 9.329014e+01 6.995611e+01
      endloop
   endfacet
   facet normal 0.000000e+00 6.617362e-01 7.497368e-01
      outer loop
         vertex 2.000000e+00 9.329014e+01 6.995611e+01
         vertex 0.000000e+00 9.329014e+01 6.995611e+01
         vertex 0.000000e+00 8.815718e+01 7.448659e+01
      endloop
   endfacet
   facet normal 0.000000e+00 6.617362e-01 7.497368e-01
      outer loop
         vertex 2.000000e+00 9.329014e+01 6.995611e+01
         vertex 0.000000e+00 8.815718e+01 7.448659e+01
         vertex 2.000000e+00 8.815718e+01 7.448659e+01
      endloop
   endfacet
   facet normal 0.000000e+00 7.397058e-01 6.729304e-01
      outer loop
         vertex 2.000000e+00 8.815718e+01 7.448659e+01
         vertex 0.000000e+00 8.815718e+01 7.448659e+01
         vertex 0.000000e+00 8.324477e+01 7.988646e+01
      endloop
   endfacet
   facet normal 0.000000e+00 7.397058e-01 6.729304e-01
      outer loop
         vertex 2.000000e+00 8.815718e+01 7.448659e+01
         vertex 0.000000e+00 8.324477e+01 7.988646e+01
         vertex 2.000000e+00 8.324477e+01 7.988646e+01
      endloop
   endfacet
   facet normal 0.000000e+00 8.044185e-01 5.940630e-01
      outer loop
         vertex 2.000000e+00 8.324477e+01 7.988646e+01
         vertex 0.000000e+00 8.324477e+01 7.988646e+01
         vertex 0.000000e+00 7.867485e+01 8.607457e+01
      endloop
   endfacet
   facet normal 0.000000e+00 8.044185e-01 5.940630e-01
      outer loop
         vertex 2.000000e+00 8.324477e+01 7.988646e+01
         vertex 0.000000e+00 7.867485e+01 8.607457e+01
         vertex 2.000000e+00 7.867485e+01 8.607457e+01
      endloop
   endfacet
   facet normal 0.000000e+00 8.573935e-01 5.146614e-01
      outer loop
         vertex 2.000000e+00 7.867485e+01 8.607457e+01
         vertex 0.000000e+00 7.867485e+01 8.607457e+01
         vertex 0.000000e+00 7.441667e+01 9.316844e+01
      endloop
   endfacet
   facet normal 0.000000e+00 8.573935e-01 5.146614e-01
      outer loop
         vertex 2.000000e+00 7.867485e+01 8.607457e+01
         vertex 0.000000e+00 7.441667e+01 9.316844e+01
         vertex 2.000000e+00 7.441667e+01 9.316844e+01
      endloop
   endfacet
   facet normal 0.000000e+00 9.001448e-01 4.355907e-01
      outer loop
         vertex 2.000000e+00 7.441667e+01 9.316844e+01
         vertex 0.000000e+00 7.441667e+01 9.316844e+01
         vertex 0.000000e+00 7.057726e+01 1.011025e+02
      endloop
   endfacet
   facet normal 0.000000e+00 9.001448e-01 4.355907e-01
      outer loop
         vertex 2.000000e+00 7.441667e+01 9.316844e+01
         vertex 0.000000e+00 7.057726e+01 1.011025e+02
         vertex 2.000000e+00 7.057726e+01 1.011025e+02
      endloop
   endfacet
   facet normal 0.000000e+00 9.339084e-01 3.575124e-01
      outer loop
         vertex 2.000000e+00 7.057726e+01 1.011025e+02
         vertex 0.000000e+00 7.057726e+01 1.011025e+02
         vertex 0.000000e+00 6.724168e+01 1.098159e+02
      endloop
   endfacet
   facet normal 0.000000e+00 9.339084e-01 3.575124e-01
      outer loop
         vertex 2.000000e+00 7.057726e+01 1.011025e+02
         vertex 0.000000e+00 6.724168e+01 1.098159e+02
         vertex 2.000000e+00 6.724168e+01 1.098159e+02
      endloop
   endfacet
   facet normal 0.000000e+00 9.596973e-01 2.810358e-01
      outer loop
         vertex 2.000000e+00 6.724168e+01 1.098159e+02
         vertex 0.000000e+00 6.724168e+01 1.098159e+02
         vertex 0.000000e+00 6.447969e+01 1.192477e+02
      endloop
   endfacet
   facet normal 0.000000e+00 9.596973e-01 2.810358e-01
      outer loop
         vertex 2.000000e+00 6.724168e+01 1.098159e+02
         vertex 0.000000e+00 6.447969e+01 1.192477e+02
         vertex 2.000000e+00 6.447969e+01 1.192477e+02
      endloop
   endfacet
   facet normal 0.000000e+00 9.783210e-01 2.070941e-01
      outer loop
         vertex 2.000000e+00 6.447969e+01 1.192477e+02
         vertex 0.000000e+00 6.447969e+01 1.192477e+02
         vertex 0.000000e+00 6.233725e+01 1.293687e+02
      endloop
   endfacet
   facet normal 0.000000e+00 9.783210e-01 2.070941e-01
      outer loop
         vertex 2.000000e+00 6.447969e+01 1.192477e+02
         vertex 0.000000e+00 6.233725e+01 1.293687e+02
         vertex 2.000000e+00 6.233725e+01 1.293687e+02
      endloop
   endfacet
   facet normal 0.000000e+00 9.907465e-01 1.357251e-01
      outer loop
         vertex 2.000000e+00 6.233725e+01 1.293687e+02
         vertex 0.000000e+00 6.233725e+01 1.293687e+02
         vertex 0.000000e+00 6.086046e+01 1.401488e+02
      endloop
   endfacet
   facet normal 0.000000e+00 9.907465e-01 1.357251e-01
      outer loop
         vertex 2.000000e+00 6.233725e+01 1.293687e+02
         vertex 0.000000e+00 6.086046e+01 1.401488e+02
         vertex 2.000000e+00 6.086046e+01 1.401488e+02
      endloop
   endfacet
   facet normal 0.000000e+00 9.977655e-01 6.681337e-02
      outer loop
         vertex 2.000000e+00 6.086046e+01 1.401488e+02
         vertex 0.000000e+00 6.086046e+01 1.401488e+02
         vertex 0.000000e+00 6.009935e+01 1.515148e+02
      endloop
   endfacet
   facet normal 0.000000e+00 9.977655e-01 6.681337e-02
      outer loop
         vertex 2.000000e+00 6.086046e+01 1.401488e+02
         vertex 0.000000e+00 6.009935e+01 1.515148e+02
         vertex 2.000000e+00 6.009935e+01 1.515148e+02
      endloop
   endfacet
   facet normal 0.000000e+00 9.998622e-01 1.659892e-02
      outer loop
         vertex 2.000000e+00 6.009935e+01 1.515148e+02
         vertex 0.000000e+00 6.009935e+01 1.515148e+02
         vertex 0.000000e+00 5.999999e+01 1.575000e+02
      endloop
   endfacet
   facet normal 0.000000e+00 9.998622e-01 1.659892e-02
      outer loop
         vertex 2.000000e+00 6.009935e+01 1.515148e+02
         vertex 0.000000e+00 5.999999e+01 1.575000e+02
         vertex 2.000000e+00 5.999999e+01 1.575000e+02
      endloop
   endfacet
endsolid